<?xml version="1.0" encoding="UTF-8" standalone="no"?>
<!-- Created with Inkscape (http://www.inkscape.org/) -->

<svg
   width="1332.548"
   height="524.78998"
   viewBox="0 0 352.56999 138.85068"
   version="1.1"
   id="svg5"
   xml:space="preserve"
   inkscape:export-filename="logo-black.png"
   inkscape:export-xdpi="96"
   inkscape:export-ydpi="96"
   inkscape:version="1.2.2 (732a01da63, 2022-12-09)"
   sodipodi:docname="logo.svg"
   xmlns:inkscape="http://www.inkscape.org/namespaces/inkscape"
   xmlns:sodipodi="http://sodipodi.sourceforge.net/DTD/sodipodi-0.dtd"
   xmlns="http://www.w3.org/2000/svg"
   xmlns:svg="http://www.w3.org/2000/svg"><sodipodi:namedview
     id="namedview7"
     pagecolor="#505050"
     bordercolor="#eeeeee"
     borderopacity="1"
     inkscape:showpageshadow="0"
     inkscape:pageopacity="0"
     inkscape:pagecheckerboard="0"
     inkscape:deskcolor="#505050"
     inkscape:document-units="mm"
     showgrid="false"
     inkscape:zoom="0.74143672"
     inkscape:cx="666.27399"
     inkscape:cy="262.32852"
     inkscape:window-width="1920"
     inkscape:window-height="1051"
     inkscape:window-x="-9"
     inkscape:window-y="-9"
     inkscape:window-maximized="1"
     inkscape:current-layer="layer1" /><defs
     id="defs2" /><g
     inkscape:label="Layer 1"
     inkscape:groupmode="layer"
     id="layer1"><g
       id="g450"
       transform="translate(-1.8790097,-231.59211)"
       style="fill:#ffffff"><text
         xml:space="preserve"
         style="font-style:italic;font-size:57.6636px;line-height:1.5;font-family:'Amiri Quran';-inkscape-font-specification:'Amiri Quran Italic';text-align:end;text-anchor:end;fill:#ffffff;fill-rule:evenodd;stroke-width:6.75747;stroke-linecap:round;stroke-linejoin:bevel;stop-color:#000000"
         x="354.64624"
         y="258.98798"
         id="text236"><tspan
           sodipodi:role="line"
           id="tspan234"
           style="font-style:normal;font-variant:normal;font-weight:bold;font-stretch:normal;font-family:'Browallia New';-inkscape-font-specification:'Browallia New Bold';fill:#ffffff;stroke-width:6.75747"
           x="354.64624"
           y="258.98798">UM TRANSPORTER</tspan></text><g
         stroke="none"
         stroke-width="1"
         fill="none"
         fill-rule="evenodd"
         id="g406"
         transform="matrix(-3.7572147,0,0,3.7572147,227.31175,276.5124)"
         style="fill:#ffffff"><g
           transform="translate(-720,-339)"
           fill="#000000"
           id="g404"
           style="fill:#ffffff"><g
             transform="translate(720,339)"
             id="g402"
             style="fill:#ffffff"><path
               d="m 48.917,22.29 c -0.042,0.036 -0.083,0.072 -0.127,0.105 -0.084,0.062 -0.17,0.119 -0.26,0.172 -0.071,0.043 -0.143,0.082 -0.218,0.119 -0.08,0.039 -0.157,0.076 -0.24,0.108 -0.102,0.039 -0.209,0.069 -0.316,0.098 -0.066,0.017 -0.13,0.039 -0.197,0.052 C 47.377,22.978 47.191,23 47,23 46.809,23 46.623,22.978 46.441,22.944 46.374,22.931 46.31,22.909 46.244,22.892 46.136,22.863 46.03,22.833 45.928,22.794 45.845,22.762 45.768,22.725 45.688,22.686 45.613,22.649 45.541,22.61 45.47,22.567 45.38,22.514 45.294,22.457 45.21,22.395 45.166,22.362 45.125,22.326 45.083,22.29 44.427,21.74 44,20.924 44,20 c 0,-1.657 1.343,-3 3,-3 1.657,0 3,1.343 3,3 0,0.924 -0.427,1.74 -1.083,2.29 z M 24,7 c 0,0.551 -0.448,1 -1,1 H 12.399 C 12.507,7.903 12.609,7.805 12.707,7.707 13.229,7.185 13.721,6.664 14.198,6.157 16.389,3.834 18.118,2 21,2 h 3 z M 11.917,22.29 c -0.042,0.036 -0.083,0.072 -0.127,0.105 -0.084,0.062 -0.17,0.119 -0.26,0.172 -0.071,0.043 -0.143,0.082 -0.218,0.119 -0.08,0.039 -0.157,0.076 -0.24,0.108 -0.102,0.039 -0.209,0.069 -0.316,0.098 -0.066,0.017 -0.13,0.039 -0.197,0.052 C 10.377,22.978 10.191,23 10,23 9.809,23 9.623,22.978 9.441,22.944 9.374,22.931 9.31,22.909 9.244,22.892 9.136,22.863 9.03,22.833 8.928,22.794 8.845,22.762 8.768,22.725 8.688,22.686 8.613,22.649 8.541,22.61 8.47,22.567 8.38,22.514 8.294,22.457 8.21,22.395 8.166,22.362 8.125,22.326 8.083,22.29 7.427,21.74 7,20.924 7,20 c 0,-1.657 1.343,-3 3,-3 1.657,0 3,1.343 3,3 0,0.924 -0.427,1.74 -1.083,2.29 z M 54,0 H 25 21 c -3.745,0 -5.937,2.324 -8.257,4.785 -0.464,0.493 -0.942,1 -1.45,1.508 -0.16,0.16 -0.338,0.316 -0.524,0.47 -0.117,0.095 -0.248,0.192 -0.378,0.288 -0.072,0.053 -0.139,0.107 -0.213,0.16 C 9.978,7.352 9.764,7.495 9.533,7.64 9.526,7.644 9.521,7.648 9.514,7.652 9.264,7.808 8.996,7.967 8.709,8.129 8.706,8.131 8.705,8.133 8.702,8.135 7.588,8.763 6.355,9.343 5.201,9.884 2.182,11.298 0,12.32 0,14 v 5 c 0,1.654 1.346,3 3,3 h 2.424 c 0.773,1.763 2.531,3 4.576,3 2.045,0 3.803,-1.237 4.576,-3 h 27.848 c 0.773,1.763 2.531,3 4.576,3 2.045,0 3.803,-1.237 4.576,-3 H 56 c 2.206,0 4,-1.794 4,-4 V 14 C 60,9.811 60,0 54,0 Z"
               id="path400"
               style="fill:#ffffff" /></g></g></g></g></g></svg>
